<?xml version="1.0" encoding="UTF-8" standalone="no"?>
<!-- Created with Inkscape (http://www.inkscape.org/) -->

<svg
   width="88.37291"
   height="88.373177"
   viewBox="0 0 23.381999 23.382069"
   version="1.1"
   id="svg1"
   xml:space="preserve"
   sodipodi:docname="icon.svg"
   inkscape:version="1.4 (86a8ad7, 2024-10-11)"
   xmlns:inkscape="http://www.inkscape.org/namespaces/inkscape"
   xmlns:sodipodi="http://sodipodi.sourceforge.net/DTD/sodipodi-0.dtd"
   xmlns:xlink="http://www.w3.org/1999/xlink"
   xmlns="http://www.w3.org/2000/svg"
   xmlns:svg="http://www.w3.org/2000/svg"><sodipodi:namedview
     id="namedview1"
     pagecolor="#ffffff"
     bordercolor="#000000"
     borderopacity="0.25"
     inkscape:showpageshadow="2"
     inkscape:pageopacity="0.0"
     inkscape:pagecheckerboard="0"
     inkscape:deskcolor="#d1d1d1"
     inkscape:zoom="6.6026822"
     inkscape:cx="-1.2116288"
     inkscape:cy="36.424591"
     inkscape:window-width="2560"
     inkscape:window-height="1369"
     inkscape:window-x="1912"
     inkscape:window-y="-8"
     inkscape:window-maximized="1"
     inkscape:current-layer="svg1" /><defs
     id="defs1"><linearGradient
       id="linearGradient6"><stop
         style="stop-color:#05476d;stop-opacity:1;"
         offset="0"
         id="stop7" /><stop
         style="stop-color:#022336;stop-opacity:1;"
         offset="1"
         id="stop9" /></linearGradient><linearGradient
       xlink:href="#linearGradient6"
       id="linearGradient8"
       x1="13.229167"
       y1="1.5381663"
       x2="13.229167"
       y2="24.920168"
       gradientUnits="userSpaceOnUse" /></defs><g
     id="layer1"
     transform="translate(-1.5381667,-1.5381323)"><rect
       style="display:inline;opacity:1;fill:url(#linearGradient8);fill-opacity:1;stroke:none;stroke-width:0.265;stroke-dasharray:none"
       id="rect1"
       width="23.382"
       height="23.382069"
       x="1.5381666"
       y="1.5381323"
       rx="0.89999998" /></g><g
     style="fill:#ffffff;fill-opacity:1;stroke:#000000;stroke-opacity:1;stroke-width:0.13151349;stroke-dasharray:none"
     id="g1"
     transform="matrix(1.0059171,0,0,1.0059171,3.6436625,3.6436979)"><path
       d="M 6,1 V 4 H 1 V 1 Z M 1,0 A 1,1 0 0 0 0,1 V 4 A 1,1 0 0 0 1,5 H 6 A 1,1 0 0 0 7,4 V 1 A 1,1 0 0 0 6,0 Z m 14,12 v 3 h -5 v -3 z m -5,-1 a 1,1 0 0 0 -1,1 v 3 a 1,1 0 0 0 1,1 h 5 a 1,1 0 0 0 1,-1 V 12 A 1,1 0 0 0 15,11 Z M 6,8 v 7 H 1 V 8 Z M 1,7 A 1,1 0 0 0 0,8 v 7 a 1,1 0 0 0 1,1 H 6 A 1,1 0 0 0 7,15 V 8 A 1,1 0 0 0 6,7 Z M 15,1 V 8 H 10 V 1 Z M 10,0 A 1,1 0 0 0 9,1 v 7 a 1,1 0 0 0 1,1 h 5 A 1,1 0 0 0 16,8 V 1 A 1,1 0 0 0 15,0 Z"
       id="path1-8"
       style="fill:#ffffff;fill-opacity:1;stroke:#000000;stroke-opacity:1;stroke-width:0.13151349;stroke-dasharray:none" /></g></svg>
