<?xml version="1.0" encoding="UTF-8" standalone="no"?>
<!-- Created with Inkscape (http://www.inkscape.org/) -->

<svg
   width="88.37291"
   height="88.373177"
   viewBox="0 0 23.381999 23.382069"
   version="1.1"
   id="svg1"
   xml:space="preserve"
   sodipodi:docname="icon-mono-configure.svg"
   inkscape:version="1.4 (86a8ad7, 2024-10-11)"
   xmlns:inkscape="http://www.inkscape.org/namespaces/inkscape"
   xmlns:sodipodi="http://sodipodi.sourceforge.net/DTD/sodipodi-0.dtd"
   xmlns:xlink="http://www.w3.org/1999/xlink"
   xmlns="http://www.w3.org/2000/svg"
   xmlns:svg="http://www.w3.org/2000/svg"><sodipodi:namedview
     id="namedview1"
     pagecolor="#ffffff"
     bordercolor="#000000"
     borderopacity="0.25"
     inkscape:showpageshadow="2"
     inkscape:pageopacity="0.0"
     inkscape:pagecheckerboard="0"
     inkscape:deskcolor="#d1d1d1"
     inkscape:zoom="3.3013411"
     inkscape:cx="-5.1494225"
     inkscape:cy="42.255555"
     inkscape:window-width="1920"
     inkscape:window-height="1009"
     inkscape:window-x="1912"
     inkscape:window-y="-8"
     inkscape:window-maximized="1"
     inkscape:current-layer="svg1" /><defs
     id="defs1"><linearGradient
       id="linearGradient6"><stop
         style="stop-color:#05476d;stop-opacity:1;"
         offset="0"
         id="stop7" /><stop
         style="stop-color:#022336;stop-opacity:1;"
         offset="1"
         id="stop9" /></linearGradient><linearGradient
       xlink:href="#linearGradient6"
       id="linearGradient8"
       x1="13.229167"
       y1="1.5381663"
       x2="13.229167"
       y2="24.920168"
       gradientUnits="userSpaceOnUse" /></defs><g
     style="fill:#000000;fill-opacity:1;stroke:#000000;stroke-width:0.273947;stroke-dasharray:none;stroke-opacity:1;stroke-linejoin:bevel"
     id="g1"
     transform="matrix(1.1642078,0,0,1.1642078,2.4087729,2.4068898)"><path
       d="m 11.742,10.344 a 6.5,6.5 0 1 0 -1.397,1.398 h -0.001 q 0.044,0.06 0.098,0.115 l 3.85,3.85 a 1.0002026,1.0002026 0 0 0 1.415,-1.414 l -3.85,-3.85 a 1,1 0 0 0 -0.115,-0.1 z M 12,6.5 a 5.5,5.5 0 1 1 -11,0 5.5,5.5 0 0 1 11,0"
       id="path1"
       style="fill:#000000;fill-opacity:1;stroke:#000000;stroke-width:0.273947;stroke-dasharray:none;stroke-opacity:1;stroke-linejoin:bevel" /></g><g
     style="fill:#ffffff;fill-opacity:1;stroke:#000000;stroke-opacity:1"
     id="g2"
     transform="matrix(0.57470659,0,0,0.57470659,5.3132565,5.3778989)"><path
       d="m 9.405,1.05 c -0.413,-1.4 -2.397,-1.4 -2.81,0 l -0.1,0.34 A 1.464,1.464 0 0 1 4.39,2.262 L 4.08,2.092 C 2.797,1.394 1.394,2.797 2.093,4.079 L 2.262,4.39 C 2.708,5.21 2.285,6.231 1.39,6.495 l -0.34,0.1 c -1.4,0.413 -1.4,2.397 0,2.81 l 0.34,0.1 a 1.464,1.464 0 0 1 0.872,2.105 l -0.17,0.31 c -0.698,1.283 0.705,2.686 1.987,1.987 L 4.39,13.738 a 1.464,1.464 0 0 1 2.105,0.872 l 0.1,0.34 c 0.413,1.4 2.397,1.4 2.81,0 l 0.1,-0.34 a 1.464,1.464 0 0 1 2.105,-0.872 l 0.31,0.17 c 1.283,0.698 2.686,-0.705 1.987,-1.987 L 13.738,11.61 A 1.464,1.464 0 0 1 14.61,9.505 l 0.34,-0.1 c 1.4,-0.413 1.4,-2.397 0,-2.81 l -0.34,-0.1 A 1.464,1.464 0 0 1 13.738,4.39 l 0.17,-0.31 C 14.606,2.797 13.203,1.394 11.921,2.093 L 11.61,2.262 A 1.464,1.464 0 0 1 9.505,1.39 Z M 8,10.93 a 2.93,2.93 0 1 1 0,-5.86 2.929,2.929 0 0 1 0,5.858 z"
       id="path1-4"
       style="fill:#ffffff;fill-opacity:1;stroke:#000000;stroke-opacity:1" /></g></svg>
