<?xml version="1.0" encoding="UTF-8" standalone="no"?>
<!-- Created with Inkscape (http://www.inkscape.org/) -->

<svg
   width="88.37291"
   height="88.373177"
   viewBox="0 0 23.381999 23.382069"
   version="1.1"
   id="svg1"
   xml:space="preserve"
   xmlns:xlink="http://www.w3.org/1999/xlink"
   xmlns="http://www.w3.org/2000/svg"
   xmlns:svg="http://www.w3.org/2000/svg"><defs
     id="defs1"><linearGradient
       id="linearGradient6"><stop
         style="stop-color:#05476d;stop-opacity:1;"
         offset="0"
         id="stop7" /><stop
         style="stop-color:#022336;stop-opacity:1;"
         offset="1"
         id="stop9" /></linearGradient><linearGradient
       xlink:href="#linearGradient6"
       id="linearGradient8"
       x1="13.229167"
       y1="1.5381663"
       x2="13.229167"
       y2="24.920168"
       gradientUnits="userSpaceOnUse" /></defs><g
     style="display:none;fill:#000000;fill-opacity:1;stroke:#000000;stroke-width:0.273947;stroke-linejoin:bevel;stroke-dasharray:none;stroke-opacity:1"
     id="g1"
     transform="matrix(1.1642078,0,0,1.1642078,2.4087729,2.4068898)"><path
       d="m 11.742,10.344 a 6.5,6.5 0 1 0 -1.397,1.398 h -0.001 q 0.044,0.06 0.098,0.115 l 3.85,3.85 a 1.0002026,1.0002026 0 0 0 1.415,-1.414 l -3.85,-3.85 a 1,1 0 0 0 -0.115,-0.1 z M 12,6.5 a 5.5,5.5 0 1 1 -11,0 5.5,5.5 0 0 1 11,0"
       id="path1"
       style="fill:#000000;fill-opacity:1;stroke:#000000;stroke-width:0.273947;stroke-linejoin:bevel;stroke-dasharray:none;stroke-opacity:1" /></g><g
     style="display:none;fill:#ffffff;fill-opacity:1;stroke:#000000;stroke-opacity:1"
     id="g2"
     transform="matrix(0.57470659,0,0,0.57470659,5.3132565,5.3778989)"><path
       d="m 9.405,1.05 c -0.413,-1.4 -2.397,-1.4 -2.81,0 l -0.1,0.34 A 1.464,1.464 0 0 1 4.39,2.262 L 4.08,2.092 C 2.797,1.394 1.394,2.797 2.093,4.079 L 2.262,4.39 C 2.708,5.21 2.285,6.231 1.39,6.495 l -0.34,0.1 c -1.4,0.413 -1.4,2.397 0,2.81 l 0.34,0.1 a 1.464,1.464 0 0 1 0.872,2.105 l -0.17,0.31 c -0.698,1.283 0.705,2.686 1.987,1.987 L 4.39,13.738 a 1.464,1.464 0 0 1 2.105,0.872 l 0.1,0.34 c 0.413,1.4 2.397,1.4 2.81,0 l 0.1,-0.34 a 1.464,1.464 0 0 1 2.105,-0.872 l 0.31,0.17 c 1.283,0.698 2.686,-0.705 1.987,-1.987 L 13.738,11.61 A 1.464,1.464 0 0 1 14.61,9.505 l 0.34,-0.1 c 1.4,-0.413 1.4,-2.397 0,-2.81 l -0.34,-0.1 A 1.464,1.464 0 0 1 13.738,4.39 l 0.17,-0.31 C 14.606,2.797 13.203,1.394 11.921,2.093 L 11.61,2.262 A 1.464,1.464 0 0 1 9.505,1.39 Z M 8,10.93 a 2.93,2.93 0 1 1 0,-5.86 2.929,2.929 0 0 1 0,5.858 z"
       id="path1-4"
       style="fill:#ffffff;fill-opacity:1;stroke:#000000;stroke-opacity:1" /></g><g
     style="fill:currentColor"
     id="g3"
     transform="matrix(1.2213047,0,0,1.2213047,1.9205617,1.9205971)"><path
       d="M 8,15 A 7,7 0 1 1 8,1 7,7 0 0 1 8,15 m 0,1 A 8,8 0 1 0 8,0 8,8 0 0 0 8,16"
       id="path1-0" /><path
       d="m 5.255,5.786 a 0.237,0.237 0 0 0 0.241,0.247 h 0.825 c 0.138,0 0.248,-0.113 0.266,-0.25 0.09,-0.656 0.54,-1.134 1.342,-1.134 0.686,0 1.314,0.343 1.314,1.168 0,0.635 -0.374,0.927 -0.965,1.371 C 7.605,7.677 7.072,8.248 7.11,9.175 l 0.003,0.217 a 0.25,0.25 0 0 0 0.25,0.246 h 0.811 a 0.25,0.25 0 0 0 0.25,-0.25 V 9.283 C 8.424,8.565 8.697,8.356 9.434,7.797 10.043,7.334 10.678,6.82 10.678,5.741 10.678,4.23 9.402,3.5 8.005,3.5 6.738,3.5 5.35,4.09 5.255,5.786 m 1.557,5.763 c 0,0.533 0.425,0.927 1.01,0.927 0.609,0 1.028,-0.394 1.028,-0.927 0,-0.552 -0.42,-0.94 -1.029,-0.94 -0.584,0 -1.009,0.388 -1.009,0.94"
       id="path2" /></g></svg>
